<svg width="37" height="37" viewBox="0 0 37 37" fill="none" xmlns="http://www.w3.org/2000/svg">
<rect x="0.5" y="0.5" width="36" height="36" rx="9.5" stroke="#DFDFDE"/>
<path d="M18.5 9.75C13.6678 9.75 9.75 13.6678 9.75 18.5H12.25C12.25 15.0485 15.0485 12.25 18.5 12.25V9.75ZM9.75 18.5C9.75 23.3322 13.6678 27.25 18.5 27.25V24.75C15.0485 24.75 12.25 21.9515 12.25 18.5H9.75ZM18.5 27.25C23.3322 27.25 27.25 23.3322 27.25 18.5H24.75C24.75 21.9515 21.9515 24.75 18.5 24.75V27.25ZM27.25 18.5C27.25 13.6678 23.3322 9.75 18.5 9.75V12.25C21.9515 12.25 24.75 15.0485 24.75 18.5H27.25Z" fill="#0EB80E"/>
<path d="M28.75 9C28.75 8.86193 28.8619 8.75 29 8.75V11.25C30.2426 11.25 31.25 10.2426 31.25 9H28.75ZM29 8.75C29.1381 8.75 29.25 8.86193 29.25 9H26.75C26.75 10.2426 27.7574 11.25 29 11.25V8.75ZM29.25 9C29.25 9.13807 29.1381 9.25 29 9.25V6.75C27.7574 6.75 26.75 7.75736 26.75 9H29.25ZM29 9.25C28.8619 9.25 28.75 9.13807 28.75 9H31.25C31.25 7.75736 30.2426 6.75 29 6.75V9.25Z" fill="#0EB80E"/>
</svg>
