<svg width="121" height="90" viewBox="0 0 121 90" fill="none" xmlns="http://www.w3.org/2000/svg">
<path d="M46.1709 4.78948C46.1709 2.51323 48.0162 0.667969 50.2924 0.667969H75.0494C77.3256 0.667969 79.1709 2.51323 79.1709 4.78948V4.78948H46.1709V4.78948Z" fill="#0EB80E"/>
<path d="M0.569432 15.6082C0.568305 37.4989 0.568874 59.3895 0.569011 81.2801C0.569035 85.0514 0.569047 86.937 1.74062 88.1086C2.91219 89.2801 4.79781 89.2801 8.56904 89.2801H111.5M46.3082 10.9544H79.2623M46.3082 10.9544V4.78925V4.78925C46.3082 2.62693 48.0611 0.874023 50.2234 0.874023H71.2623C75.0335 0.874023 76.9191 0.874023 78.0907 2.0456C79.2623 3.21717 79.2623 5.10279 79.2623 8.87402V10.9544M46.3082 10.9544H3.1709M79.2623 10.9544H101.171M119.59 74.8549C119.59 56.2214 119.59 37.5879 119.59 18.9544C119.59 15.1832 119.59 13.2976 118.419 12.126C117.247 10.9544 115.362 10.9544 111.59 10.9544H104.171" stroke="black" stroke-linecap="round" stroke-linejoin="round"/>
<path d="M79.7849 51.5045C79.7849 49.6278 79.7849 48.6894 79.2028 48.1042C78.6206 47.519 77.6822 47.5142 75.8054 47.5046L71.8807 47.4845C69.996 47.4748 69.0536 47.4699 68.4709 46.8815C67.8882 46.2931 67.8926 45.3507 67.9013 43.466L67.9235 38.6552C67.9322 36.7616 67.9366 35.8148 67.3502 35.2258C66.7639 34.6367 65.8171 34.6367 63.9235 34.6367H60.8505C58.9728 34.6367 58.034 34.6367 57.4488 35.2192C56.8635 35.8018 56.8592 36.7406 56.8505 38.6183L56.8281 43.4824C56.8194 45.3601 56.8151 46.2989 56.2299 46.8814C55.6446 47.4639 54.7058 47.4639 52.8281 47.4639H48.9668C47.0812 47.4639 46.1384 47.4639 45.5526 48.0497C44.9668 48.6355 44.9668 49.5783 44.9668 51.4639V53.909C44.9668 55.7946 44.9668 56.7374 45.5526 57.3232C46.1384 57.909 47.0812 57.909 48.9668 57.909H52.8097C54.6953 57.909 55.6381 57.909 56.2239 58.4947C56.8097 59.0805 56.8097 60.0233 56.8097 61.909V66.7362C56.8097 68.6218 56.8097 69.5646 57.3955 70.1504C57.9813 70.7362 58.9241 70.7362 60.8097 70.7362H63.8828C65.7684 70.7362 66.7112 70.7362 67.297 70.1504C67.8828 69.5646 67.8828 68.6218 67.8828 66.7362V61.909C67.8828 60.0233 67.8828 59.0805 68.4686 58.4947C69.0544 57.909 69.9972 57.909 71.8828 57.909H75.7849C77.6705 57.909 78.6133 57.909 79.1991 57.3232C79.7849 56.7374 79.7849 55.7946 79.7849 53.909V51.5045Z" fill="#0EB80E"/>
<path d="M54.8393 38.9898L54.8505 36.5577C54.8592 34.6801 54.8635 33.7412 55.4487 33.1587C56.034 32.5762 56.9728 32.5762 58.8505 32.5762H61.9235C63.8171 32.5762 64.7639 32.5762 65.3502 33.1652C65.9366 33.7543 65.9322 34.7011 65.9235 36.5946L65.9013 41.4055C65.8926 43.2902 65.8882 44.2326 66.4709 44.821C67.0536 45.4094 67.996 45.4142 69.8807 45.4239L73.8054 45.4441C75.6822 45.4537 76.6206 45.4585 77.2028 46.0437C77.7849 46.6288 77.7849 47.5672 77.7849 49.444V51.8484C77.7849 53.734 77.7849 54.6768 77.1991 55.2626C76.6133 55.8484 75.6705 55.8484 73.7849 55.8484H69.8828C67.9972 55.8484 67.0544 55.8484 66.4686 56.4342C65.8828 57.02 65.8828 57.9628 65.8828 59.8484V64.6756C65.8828 66.5612 65.8828 67.5041 65.297 68.0898C64.7112 68.6756 63.7684 68.6756 61.8828 68.6756H58.8097C56.9241 68.6756 55.9813 68.6756 55.3955 68.0898C54.8097 67.5041 54.8097 66.5612 54.8097 64.6756V59.8484C54.8097 57.9628 54.8097 57.02 54.2239 56.4342C53.6381 55.8484 52.6953 55.8484 50.8097 55.8484H46.9668C45.0812 55.8484 44.1384 55.8484 43.5526 55.2626C42.9668 54.6768 42.9668 53.734 42.9668 51.8484V49.4034C42.9668 47.5178 42.9668 46.575 43.5526 45.9892C44.1384 45.4034 45.0812 45.4034 46.9668 45.4034H50.5" stroke="#333333" stroke-linecap="round" stroke-linejoin="round"/>
</svg>
